HIERARCHY
ROOT newVegas:Hips
{
	OFFSET 0.000000 96.479958 0.000000
	CHANNELS 6 Xposition Yposition Zposition Xrotation Yrotation Zrotation
	JOINT newVegas:Pelvis
	{
		OFFSET 0.000000 0.000000 0.000000
		CHANNELS 3 Xrotation Yrotation Zrotation
		JOINT newVegas:LeftUpLeg
		{
			OFFSET 18.735201 -5.666702 -4.541200
			CHANNELS 3 Xrotation Yrotation Zrotation
			JOINT newVegas:LeftLeg
			{
				OFFSET -0.021200 -31.938179 0.493100
				CHANNELS 3 Xrotation Yrotation Zrotation
				JOINT newVegas:LeftFoot
				{
					OFFSET 0.021200 -31.938179 -4.336299
					CHANNELS 3 Xrotation Yrotation Zrotation
					JOINT newVegas:LeftToeBase
					{
						OFFSET 0.943001 -26.722000 15.023500
						CHANNELS 3 Xrotation Yrotation Zrotation
						End Site
						{
							OFFSET 0.000000 30.670183 0.000000
						}
					}
				}
				JOINT newVegas:Left_PantLeg
				{
					OFFSET 0.663870 -9.044666 -1.108900
					CHANNELS 3 Xrotation Yrotation Zrotation
					End Site
					{
						OFFSET 1.415995 20.635357 0.000000
					}
				}
			}
		}
		JOINT newVegas:RightUpLeg
		{
			OFFSET -18.735201 -5.666702 -4.541200
			CHANNELS 3 Xrotation Yrotation Zrotation
			JOINT newVegas:RightLeg
			{
				OFFSET 0.018946 -31.938133 0.493100
				CHANNELS 3 Xrotation Yrotation Zrotation
				JOINT newVegas:RightFoot
				{
					OFFSET -0.018946 -31.938126 -4.336299
					CHANNELS 3 Xrotation Yrotation Zrotation
					JOINT newVegas:RightToeBase
					{
						OFFSET -0.943001 -26.722004 15.023500
						CHANNELS 3 Xrotation Yrotation Zrotation
						End Site
						{
							OFFSET 0.000000 30.670187 0.000000
						}
					}
				}
				JOINT newVegas:Right_PantLeg
				{
					OFFSET -0.661674 -9.044716 -1.108900
					CHANNELS 3 Xrotation Yrotation Zrotation
					End Site
					{
						OFFSET -1.415958 20.635269 0.000000
					}
				}
			}
		}
	}
	JOINT newVegas:Spine
	{
		OFFSET 0.000000 10.199997 -0.299500
		CHANNELS 3 Xrotation Yrotation Zrotation
		JOINT newVegas:Spine1
		{
			OFFSET 0.000000 11.900002 -1.516600
			CHANNELS 3 Xrotation Yrotation Zrotation
			JOINT newVegas:Spine2
			{
				OFFSET 0.000000 13.600006 -2.842500
				CHANNELS 3 Xrotation Yrotation Zrotation
				JOINT newVegas:Neck
				{
					OFFSET 0.000000 9.624100 -2.890100
					CHANNELS 3 Xrotation Yrotation Zrotation
					JOINT newVegas:Head
					{
						OFFSET 0.000000 14.068802 -1.351900
						CHANNELS 3 Xrotation Yrotation Zrotation
						JOINT newVegas:Hair_Back
						{
							OFFSET 0.000000 3.231903 -17.524799
							CHANNELS 3 Xrotation Yrotation Zrotation
							End Site
							{
								OFFSET 0.000000 19.849884 0.000000
							}
						}
						JOINT newVegas:Hair_Front
						{
							OFFSET 0.000000 31.260406 4.573800
							CHANNELS 3 Xrotation Yrotation Zrotation
							JOINT newVegas:Hair_Front1
							{
								OFFSET 0.000000 2.284103 11.993300
								CHANNELS 3 Xrotation Yrotation Zrotation
								JOINT newVegas:Hair_Front2
								{
									OFFSET 0.000000 2.284103 11.993300
									CHANNELS 3 Xrotation Yrotation Zrotation
									End Site
									{
										OFFSET 0.000000 12.208862 0.000000
									}
								}
							}
						}
						JOINT newVegas:Jowel
						{
							OFFSET 0.000000 -7.458206 6.864100
							CHANNELS 3 Xrotation Yrotation Zrotation
							End Site
							{
								OFFSET 0.000000 19.849884 0.000000
							}
						}
					}
				}
				JOINT newVegas:LeftShoulder
				{
					OFFSET 15.263000 10.923401 -0.547700
					CHANNELS 3 Xrotation Yrotation Zrotation
					JOINT newVegas:LeftArm
					{
						OFFSET 25.438599 -2.830597 -13.032500
						CHANNELS 3 Xrotation Yrotation Zrotation
						JOINT newVegas:LeftForeArm
						{
							OFFSET 29.960503 0.000000 0.000000
							CHANNELS 3 Xrotation Yrotation Zrotation
							JOINT newVegas:LeftHand
							{
								OFFSET 27.849251 0.000000 0.000000
								CHANNELS 3 Xrotation Yrotation Zrotation
								JOINT newVegas:LeftHandThumb1
								{
									OFFSET 4.487587 -3.305161 6.305391
									CHANNELS 3 Xrotation Yrotation Zrotation
									JOINT newVegas:LeftHandThumb2
									{
										OFFSET 5.480453 -3.164139 3.164143
										CHANNELS 3 Xrotation Yrotation Zrotation
										JOINT newVegas:LeftHandThumb3
										{
											OFFSET 5.159721 -2.978973 2.978967
											CHANNELS 3 Xrotation Yrotation Zrotation
											End Site
											{
												OFFSET 2.494507 5.926697 1.738678
											}
										}
									}
								}
								JOINT newVegas:LeftHandIndex1
								{
									OFFSET 18.578728 -0.527832 5.208049
									CHANNELS 3 Xrotation Yrotation Zrotation
									JOINT newVegas:LeftHandIndex2
									{
										OFFSET 3.192009 0.000000 0.000000
										CHANNELS 3 Xrotation Yrotation Zrotation
										JOINT newVegas:LeftHandIndex3
										{
											OFFSET 3.835129 0.000000 0.000000
											CHANNELS 3 Xrotation Yrotation Zrotation
											End Site
											{
												OFFSET -0.034599 3.816971 0.371180
											}
										}
									}
								}
								JOINT newVegas:LeftHandMiddle1
								{
									OFFSET 18.476105 0.000000 0.000000
									CHANNELS 3 Xrotation Yrotation Zrotation
									JOINT newVegas:LeftHandMiddle2
									{
										OFFSET 3.324875 0.000000 0.000000
										CHANNELS 3 Xrotation Yrotation Zrotation
										JOINT newVegas:LeftHandMiddle3
										{
											OFFSET 4.596550 0.000000 0.000000
											CHANNELS 3 Xrotation Yrotation Zrotation
											End Site
											{
												OFFSET 0.057701 4.578827 0.399218
											}
										}
									}
								}
								JOINT newVegas:LeftHandRing1
								{
									OFFSET 17.732719 0.121887 -4.201567
									CHANNELS 3 Xrotation Yrotation Zrotation
									JOINT newVegas:LeftHandRing2
									{
										OFFSET 2.733170 0.000000 0.000000
										CHANNELS 3 Xrotation Yrotation Zrotation
										JOINT newVegas:LeftHandRing3
										{
											OFFSET 3.178268 0.000000 0.000000
											CHANNELS 3 Xrotation Yrotation Zrotation
											End Site
											{
												OFFSET 0.119102 3.170624 0.185394
											}
										}
									}
								}
								JOINT newVegas:LeftHandPinky1
								{
									OFFSET 15.989624 -0.606689 -7.535461
									CHANNELS 3 Xrotation Yrotation Zrotation
									JOINT newVegas:LeftHandPinky2
									{
										OFFSET 2.538986 0.000000 0.000000
										CHANNELS 3 Xrotation Yrotation Zrotation
										JOINT newVegas:LeftHandPinky3
										{
											OFFSET 2.593102 0.000000 0.000000
											CHANNELS 3 Xrotation Yrotation Zrotation
											End Site
											{
												OFFSET -0.150902 2.584198 0.152708
											}
										}
									}
								}
							}
							JOINT newVegas:Left_Sleeve
							{
								OFFSET 0.267448 -0.649796 0.577675
								CHANNELS 3 Xrotation Yrotation Zrotation
								End Site
								{
									OFFSET 0.000000 15.991241 0.000000
								}
							}
							JOINT newVegas:Left_CapeC
							{
								OFFSET 15.715958 -8.608795 -6.935905
								CHANNELS 3 Xrotation Yrotation Zrotation
								JOINT newVegas:Left_CapeC1
								{
									OFFSET 0.000000 -8.688499 0.000000
									CHANNELS 3 Xrotation Yrotation Zrotation
									End Site
									{
										OFFSET 0.000000 8.688499 0.000000
									}
								}
							}
						}
						JOINT newVegas:Left_CapeB
						{
							OFFSET 26.118385 -8.608795 -7.079235
							CHANNELS 3 Xrotation Yrotation Zrotation
							JOINT newVegas:Left_CapeB1
							{
								OFFSET 0.000000 -8.688499 0.000000
								CHANNELS 3 Xrotation Yrotation Zrotation
								End Site
								{
									OFFSET 0.000000 8.688499 0.000000
								}
							}
						}
						JOINT newVegas:Left_CapeA
						{
							OFFSET 5.115639 -8.608795 -10.395809
							CHANNELS 3 Xrotation Yrotation Zrotation
							JOINT newVegas:Left_CapeA1
							{
								OFFSET 0.000000 -8.688499 0.000000
								CHANNELS 3 Xrotation Yrotation Zrotation
								End Site
								{
									OFFSET 0.000000 8.688499 0.000000
								}
							}
						}
					}
				}
				JOINT newVegas:RightShoulder
				{
					OFFSET -15.263000 10.923401 -0.547700
					CHANNELS 3 Xrotation Yrotation Zrotation
					JOINT newVegas:RightArm
					{
						OFFSET -25.438599 -2.830597 -13.032500
						CHANNELS 3 Xrotation Yrotation Zrotation
						JOINT newVegas:RightForeArm
						{
							OFFSET -29.960503 0.000000 0.000000
							CHANNELS 3 Xrotation Yrotation Zrotation
							JOINT newVegas:RightHand
							{
								OFFSET -27.849251 0.000000 0.000000
								CHANNELS 3 Xrotation Yrotation Zrotation
								JOINT newVegas:RightHandThumb1
								{
									OFFSET -4.487587 -3.305161 6.305391
									CHANNELS 3 Xrotation Yrotation Zrotation
									JOINT newVegas:RightHandThumb2
									{
										OFFSET -5.480453 -3.164139 3.164143
										CHANNELS 3 Xrotation Yrotation Zrotation
										JOINT newVegas:RightHandThumb3
										{
											OFFSET -5.159721 -2.978973 2.978967
											CHANNELS 3 Xrotation Yrotation Zrotation
											End Site
											{
												OFFSET -2.494507 5.926697 1.738678
											}
										}
									}
								}
								JOINT newVegas:RightHandIndex1
								{
									OFFSET -18.578728 -0.527832 5.208049
									CHANNELS 3 Xrotation Yrotation Zrotation
									JOINT newVegas:RightHandIndex2
									{
										OFFSET -3.192009 0.000000 0.000000
										CHANNELS 3 Xrotation Yrotation Zrotation
										JOINT newVegas:RightHandIndex3
										{
											OFFSET -3.835129 0.000000 0.000000
											CHANNELS 3 Xrotation Yrotation Zrotation
											End Site
											{
												OFFSET 0.034599 3.816971 0.371180
											}
										}
									}
								}
								JOINT newVegas:RightHandMiddle1
								{
									OFFSET -18.476105 0.000000 0.000000
									CHANNELS 3 Xrotation Yrotation Zrotation
									JOINT newVegas:RightHandMiddle2
									{
										OFFSET -3.324875 0.000000 0.000000
										CHANNELS 3 Xrotation Yrotation Zrotation
										JOINT newVegas:RightHandMiddle3
										{
											OFFSET -4.596550 0.000000 0.000000
											CHANNELS 3 Xrotation Yrotation Zrotation
											End Site
											{
												OFFSET -0.057701 4.578827 0.399218
											}
										}
									}
								}
								JOINT newVegas:RightHandRing1
								{
									OFFSET -17.732719 0.121887 -4.201567
									CHANNELS 3 Xrotation Yrotation Zrotation
									JOINT newVegas:RightHandRing2
									{
										OFFSET -2.733170 0.000000 0.000000
										CHANNELS 3 Xrotation Yrotation Zrotation
										JOINT newVegas:RightHandRing3
										{
											OFFSET -3.178268 0.000000 0.000000
											CHANNELS 3 Xrotation Yrotation Zrotation
											End Site
											{
												OFFSET -0.119102 3.170624 0.185394
											}
										}
									}
								}
								JOINT newVegas:RightHandPinky1
								{
									OFFSET -15.989624 -0.606689 -7.535461
									CHANNELS 3 Xrotation Yrotation Zrotation
									JOINT newVegas:RightHandPinky2
									{
										OFFSET -2.538986 0.000000 0.000000
										CHANNELS 3 Xrotation Yrotation Zrotation
										JOINT newVegas:RightHandPinky3
										{
											OFFSET -2.593102 0.000000 0.000000
											CHANNELS 3 Xrotation Yrotation Zrotation
											End Site
											{
												OFFSET 0.150902 2.584198 0.152708
											}
										}
									}
								}
							}
							JOINT newVegas:Right_CapeC
							{
								OFFSET -15.715958 -8.608795 -6.935905
								CHANNELS 3 Xrotation Yrotation Zrotation
								JOINT newVegas:Right_CapeC1
								{
									OFFSET 0.000000 -8.688499 0.000000
									CHANNELS 3 Xrotation Yrotation Zrotation
									End Site
									{
										OFFSET 0.000000 8.688499 0.000000
									}
								}
							}
							JOINT newVegas:Right_Sleeve
							{
								OFFSET -0.267448 -0.649994 0.577675
								CHANNELS 3 Xrotation Yrotation Zrotation
								End Site
								{
									OFFSET 0.000000 15.991302 0.000000
								}
							}
						}
						JOINT newVegas:Right_CapeA
						{
							OFFSET -5.115540 -8.608795 -10.395824
							CHANNELS 3 Xrotation Yrotation Zrotation
							JOINT newVegas:Right_CapeA1
							{
								OFFSET 0.000000 -8.688499 0.000000
								CHANNELS 3 Xrotation Yrotation Zrotation
								End Site
								{
									OFFSET 0.000000 8.688499 0.000000
								}
							}
						}
						JOINT newVegas:Right_CapeB
						{
							OFFSET -26.118187 -8.608795 -7.079266
							CHANNELS 3 Xrotation Yrotation Zrotation
							JOINT newVegas:Right_CapeB1
							{
								OFFSET 0.000000 -8.688499 0.000000
								CHANNELS 3 Xrotation Yrotation Zrotation
								End Site
								{
									OFFSET 0.000000 8.688499 0.000000
								}
							}
						}
					}
				}
				JOINT newVegas:Left_Collar
				{
					OFFSET 18.625099 8.655502 8.828100
					CHANNELS 3 Xrotation Yrotation Zrotation
					JOINT newVegas:Left_Collar1
					{
						OFFSET 14.783401 10.540405 -1.259500
						CHANNELS 3 Xrotation Yrotation Zrotation
						End Site
						{
							OFFSET 0.000000 18.199875 0.000000
						}
					}
				}
				JOINT newVegas:Collar_Back
				{
					OFFSET 0.000000 15.630707 -20.132601
					CHANNELS 3 Xrotation Yrotation Zrotation
					End Site
					{
						OFFSET 0.000000 22.523010 0.000000
					}
				}
				JOINT newVegas:Left_Peck
				{
					OFFSET 17.239599 -5.132599 25.482599
					CHANNELS 3 Xrotation Yrotation Zrotation
					End Site
					{
						OFFSET 0.000000 22.523010 0.000000
					}
				}
				JOINT newVegas:Right_Peck
				{
					OFFSET -17.239599 -5.132202 25.482599
					CHANNELS 3 Xrotation Yrotation Zrotation
					End Site
					{
						OFFSET 0.000000 22.523010 0.000000
					}
				}
				JOINT newVegas:Right_Collar
				{
					OFFSET -18.625099 8.655792 8.828100
					CHANNELS 3 Xrotation Yrotation Zrotation
					JOINT newVegas:Right_Collar1
					{
						OFFSET -14.783401 10.539993 -1.259500
						CHANNELS 3 Xrotation Yrotation Zrotation
						End Site
						{
							OFFSET 0.000000 18.199631 0.000000
						}
					}
				}
			}
		}
		JOINT newVegas:Belly
		{
			OFFSET 0.000000 -6.540398 9.014299
			CHANNELS 3 Xrotation Yrotation Zrotation
			End Site
			{
				OFFSET 0.000000 11.566666 0.000000
			}
		}
	}
	JOINT newVegas:ElvisFacialAnim_Joint
	{
		OFFSET 1.000000 -95.330101 -8.825800
		CHANNELS 3 Xrotation Yrotation Zrotation
		End Site
		{
			OFFSET 0.000000 35.315800 0.000000
		}
	}
}
MOTION
Frames: 4
Frame Time: 0.033333
21.786430 121.956100 217.707184 47.060574 62.428783 -139.747733 0.000001 -0.000001 0.000000 -114.716565 18.224601 -11.835189 114.284433 28.424589 6.753807 17.606206 19.262597 36.936259 -0.000001 0.000001 -0.000000 -0.000000 -0.000002 0.000000 -27.244018 -13.124277 2.522574 51.762602 -15.251100 7.995688 52.525797 -7.780390 20.827883 0.000000 -0.000000 -0.000002 -0.000004 -0.000000 0.000000 3.265372 2.018850 -8.715064 5.952095 5.642384 -5.917320 5.950187 5.658847 -5.903633 -7.359585 1.485138 -2.955077 -7.359595 1.485129 -2.955073 -0.000000 0.000003 -0.000000 -7.359596 1.485124 -2.955077 -7.359602 1.485109 -2.955067 -0.000001 0.000002 -0.000001 -0.000000 0.000003 -0.000001 1.924363 -11.980199 -4.679584 -23.174352 -8.553273 18.166842 0.000008 -15.999891 0.000006 -11.502538 -23.817795 29.263157 0.948022 1.163080 0.227542 14.493716 27.921689 12.956760 0.000001 0.000000 0.000001 0.079023 2.779901 -4.098741 0.022117 0.509099 -4.974078 -0.000001 -0.000001 0.000001 0.079057 2.780145 -4.100978 0.022098 0.509074 -4.974093 0.000000 0.000001 -0.000001 0.097172 2.983222 -6.091458 0.014169 0.407452 -3.979233 -0.000001 -0.000001 -0.000002 0.122373 3.185540 -8.082419 0.022091 0.509076 -4.974090 -0.000000 -0.000003 -0.000000 0.000000 -0.000001 0.000001 0.000000 -0.000001 0.000001 0.000000 -0.000001 0.000001 -0.000000 -0.000002 -0.000001 -0.000000 -0.000002 0.000000 -0.000000 -0.000002 -0.000001 -0.000000 -0.000002 -0.000000 5.055889 35.028577 -9.152267 -56.587906 26.028902 36.038581 -0.000017 42.096180 0.000016 17.283630 20.186793 -38.371313 -3.889301 -16.047041 12.625912 14.135538 -13.099169 -43.013277 -0.000000 -0.000003 -0.000003 1.144020 -11.854478 6.372036 0.017642 -0.405427 4.983436 0.000002 -0.000001 0.000002 1.142962 -11.844972 6.372609 0.017650 -0.405454 4.983427 0.000002 0.000001 -0.000002 1.483673 -11.933000 8.438679 0.011305 -0.324489 3.986593 -0.000000 0.000002 -0.000001 0.744847 -12.206349 10.278375 0.017648 -0.405460 4.983566 -0.000000 -0.000000 0.000000 0.000001 0.000002 0.000001 0.000000 0.000001 0.000002 0.000001 0.000002 -0.000000 0.000001 -0.000001 0.000006 0.000001 0.000000 0.000004 0.000001 -0.000001 0.000006 0.000001 0.000000 0.000006 0.000003 0.000002 0.000001 0.000003 0.000002 0.000001 0.000003 0.000002 0.000001 0.000003 0.000002 0.000001 0.000003 0.000002 0.000001 0.000003 0.000002 0.000001 0.000003 0.000002 0.000001 -0.000000 0.000000 -0.000001 0.000001 -0.000001 0.000000 
25.963753 123.360992 213.078674 50.148232 45.983808 -152.879195 -0.000001 -0.000003 0.000001 -97.257721 3.117979 -7.386701 104.633266 19.046940 7.666315 11.168184 24.441972 26.718879 0.000001 -0.000003 -0.000000 -0.000000 0.000000 -0.000003 -32.995937 -8.969431 1.682718 28.071777 -15.735443 5.876655 49.584656 -19.894135 11.550264 -0.000001 -0.000001 0.000001 -0.000001 -0.000000 -0.000000 2.640229 0.074582 -7.023756 5.180605 3.536177 -4.818213 5.197563 3.516566 -4.813882 -8.749336 0.847685 -2.558994 -8.749322 0.847679 -2.558987 -0.000001 0.000002 -0.000000 -8.749334 0.847701 -2.558995 -8.749316 0.847674 -2.558990 -0.000001 0.000001 -0.000000 -0.000001 0.000002 0.000001 2.910709 -26.951331 1.235867 -22.340099 -6.195867 22.187402 -0.000004 -11.591032 0.000010 -18.299404 -21.866741 32.294760 0.949767 1.163683 0.227202 14.493721 27.921709 12.956739 -0.000000 -0.000003 -0.000005 0.079013 2.780049 -4.099753 0.022125 0.509081 -4.974081 0.000002 -0.000000 -0.000001 0.079045 2.780160 -4.100971 0.022108 0.509060 -4.974085 0.000001 -0.000000 0.000001 0.097165 2.983245 -6.091464 0.014143 0.407429 -3.979212 -0.000001 -0.000002 -0.000001 0.122362 3.185550 -8.082404 0.022105 0.509077 -4.974076 -0.000001 -0.000003 -0.000000 0.000000 -0.000001 -0.000000 0.000000 -0.000001 -0.000000 0.000000 -0.000001 -0.000000 0.000001 0.000003 -0.000000 0.000000 0.000002 -0.000000 0.000001 0.000003 -0.000000 0.000000 0.000002 -0.000000 4.457111 40.356712 -8.778452 -63.332519 28.411456 40.053886 0.000013 29.802602 -0.000016 27.411894 20.771973 -39.281664 -3.887771 -16.048761 12.625600 14.136796 -13.100013 -43.013089 -0.000001 -0.000004 0.000004 1.143805 -11.852577 6.372151 0.017625 -0.405448 4.983425 0.000001 0.000000 0.000001 1.142774 -11.843521 6.372683 0.017644 -0.405448 4.983438 -0.000000 -0.000000 -0.000002 1.483762 -11.933666 8.438647 0.011300 -0.324487 3.986588 0.000000 0.000001 0.000000 0.742958 -12.205791 10.278056 0.017655 -0.405452 4.983596 0.000002 0.000003 0.000002 0.000003 -0.000001 0.000002 -0.000001 -0.000001 -0.000002 0.000003 -0.000001 0.000001 0.000001 0.000001 -0.000002 0.000001 0.000002 -0.000001 0.000001 0.000001 -0.000002 0.000001 0.000002 0.000000 -0.000001 0.000002 0.000001 -0.000001 0.000002 0.000001 -0.000001 0.000002 0.000001 -0.000001 0.000002 0.000001 -0.000001 0.000002 0.000001 -0.000001 0.000002 0.000001 -0.000001 0.000002 0.000001 0.000002 -0.000001 0.000001 -0.000001 -0.000003 0.000001 
29.171824 121.041687 209.498016 46.761142 30.673031 -161.022434 -0.000000 0.000000 -0.000000 -80.849803 -4.352080 1.532012 84.655837 14.208489 8.735895 12.025492 27.142586 20.516111 -0.000001 -0.000001 -0.000003 -0.000000 -0.000001 0.000000 -32.794395 -2.816097 3.050670 5.016494 -12.047366 -4.534067 44.638619 -26.451233 10.083729 0.000002 -0.000003 0.000001 0.000001 -0.000001 0.000000 1.937415 -0.643620 -4.024437 3.910150 0.741220 -3.243827 3.916326 0.719176 -3.240687 -9.821370 0.572915 -3.483542 -9.821363 0.572925 -3.483533 -0.000001 0.000001 0.000001 -9.821369 0.572906 -3.483536 -9.821373 0.572915 -3.483538 0.000002 -0.000001 0.000002 -0.000001 0.000001 0.000000 3.263706 -31.773405 0.527747 -22.863297 -15.577290 26.388248 0.000004 -7.255467 0.000007 -22.396592 -21.018500 38.345635 0.951055 1.164084 0.226907 14.493726 27.921687 12.956751 -0.000001 -0.000000 -0.000003 0.079031 2.780111 -4.100528 0.022122 0.509075 -4.974080 -0.000002 -0.000001 -0.000001 0.079051 2.780148 -4.100995 0.022112 0.509102 -4.974069 0.000000 -0.000001 0.000002 0.097188 2.983214 -6.091486 0.014163 0.407448 -3.979248 -0.000003 0.000001 -0.000001 0.122358 3.185549 -8.082411 0.022114 0.509081 -4.974084 -0.000000 -0.000003 -0.000000 0.000000 -0.000001 0.000001 0.000000 -0.000001 0.000001 0.000000 -0.000001 0.000001 0.000000 0.000000 0.000001 0.000000 0.000000 0.000001 0.000000 0.000000 0.000001 0.000000 -0.000000 0.000001 8.259483 48.134689 -14.856848 -71.079887 28.822282 42.956187 0.000002 18.872607 0.000005 37.716335 20.779792 -41.345963 -3.886380 -16.050560 12.625402 14.138127 -13.100871 -43.012884 0.000002 -0.000002 -0.000003 1.143371 -11.848874 6.372372 0.017629 -0.405449 4.983445 0.000001 -0.000000 -0.000000 1.142579 -11.841808 6.372774 0.017650 -0.405436 4.983435 0.000000 0.000000 -0.000001 1.483834 -11.934133 8.438623 0.011292 -0.324492 3.986586 -0.000001 -0.000001 0.000001 0.741330 -12.205440 10.277788 0.017639 -0.405467 4.983571 -0.000001 0.000003 0.000000 -0.000003 -0.000001 0.000000 -0.000003 -0.000001 -0.000001 -0.000003 -0.000002 0.000001 -0.000000 -0.000002 0.000002 -0.000000 -0.000001 0.000003 -0.000000 -0.000002 0.000002 -0.000000 -0.000001 0.000003 -0.000001 0.000000 -0.000000 -0.000001 0.000000 -0.000000 -0.000001 0.000000 -0.000000 -0.000001 0.000000 -0.000000 -0.000001 0.000000 -0.000000 -0.000001 0.000000 -0.000000 -0.000001 0.000000 -0.000000 -0.000001 0.000001 -0.000000 -0.000000 0.000000 -0.000000 
31.541220 116.481163 208.863907 43.385064 19.826612 -166.573752 -0.000000 0.000000 0.000000 -63.080280 -3.946476 10.317604 64.249411 10.227776 8.602086 15.375108 26.411896 11.121055 -0.000000 0.000000 0.000000 -0.000003 0.000000 0.000003 -40.997381 -2.858675 0.393371 18.379506 -10.800387 -6.442306 22.975187 -27.804744 6.422676 -0.000000 -0.000002 0.000000 0.000001 0.000003 -0.000001 1.791664 -0.694811 -1.411043 3.655165 -1.045886 -1.739057 3.653875 -1.054270 -1.736510 -11.270978 0.437580 -4.374961 -11.270998 0.437582 -4.374956 0.000001 0.000002 -0.000000 -11.270994 0.437571 -4.374963 -11.270982 0.437584 -4.374960 -0.000000 -0.000002 0.000000 0.000001 0.000002 -0.000000 1.523658 -30.442884 -5.998000 -22.913924 -29.676229 32.192717 -0.000005 -6.197473 0.000011 -24.441455 -20.543978 49.512123 0.951744 1.164312 0.226761 14.493731 27.921685 12.956731 0.000002 -0.000003 0.000001 0.079031 2.780164 -4.100919 0.022107 0.509080 -4.974083 -0.000003 -0.000001 0.000001 0.079037 2.780168 -4.100980 0.022118 0.509066 -4.974088 -0.000002 0.000001 0.000002 0.097176 2.983242 -6.091472 0.014150 0.407437 -3.979217 0.000002 0.000001 -0.000002 0.122352 3.185563 -8.082411 0.022108 0.509080 -4.974084 0.000001 -0.000003 -0.000000 0.000000 0.000000 0.000000 0.000000 0.000000 0.000000 0.000000 0.000001 0.000000 -0.000000 0.000001 -0.000000 -0.000000 0.000001 -0.000001 -0.000000 0.000001 -0.000000 -0.000000 -0.000000 0.000000 13.427487 51.128327 -22.875808 -83.735510 27.814033 48.518351 0.000009 9.237402 -0.000008 51.926411 20.494329 -39.397477 -3.885299 -16.052002 12.625338 14.139378 -13.101671 -43.012648 0.000001 0.000003 0.000001 1.142660 -11.842561 6.372745 0.017647 -0.405453 4.983428 -0.000000 0.000000 -0.000000 1.142288 -11.839219 6.372946 0.017649 -0.405436 4.983422 0.000001 -0.000000 0.000001 1.483883 -11.934343 8.438620 0.011282 -0.324493 3.986570 0.000000 -0.000001 0.000001 0.740068 -12.205351 10.277551 0.017646 -0.405457 4.983580 0.000003 0.000001 0.000001 0.000000 -0.000001 0.000000 0.000000 -0.000001 0.000000 0.000000 -0.000001 -0.000000 0.000000 0.000002 -0.000000 0.000000 0.000003 0.000000 0.000000 0.000002 -0.000000 0.000000 0.000003 -0.000002 -0.000000 0.000001 0.000000 -0.000000 0.000001 0.000000 -0.000000 0.000001 0.000000 -0.000000 0.000001 0.000000 -0.000000 0.000001 0.000000 -0.000000 0.000001 0.000000 -0.000000 0.000001 0.000000 0.000004 -0.000001 -0.000000 -0.000000 0.000000 0.000000 
